<svg xmlns="http://www.w3.org/2000/svg" viewBox="0 0 400 300" width="0" height="0" class="illustration styles_illustrationTablet__1DWOa"><g id="_518_data_processing_outline" data-name="#518_data_processing_outline"><rect x="180.39" y="63.09" width="83.83" height="90.94" fill="#fff"></rect><path d="M264.22,155H180.39a1,1,0,0,1-1-1V63.09a1,1,0,0,1,1-1h83.83a1,1,0,0,1,1,1V154A1,1,0,0,1,264.22,155Zm-82.83-2h81.83V64.09H181.39Z" fill="#093f68"></path><path d="M251.85,76.26H195.17a1,1,0,0,1,0-2h56.68a1,1,0,0,1,0,2Z" fill="#dfeaef"></path><path d="M251.85,87H195.17a1,1,0,0,1,0-2h56.68a1,1,0,0,1,0,2Z" fill="#dfeaef"></path><path d="M243.42,97.66H195.17a1,1,0,0,1,0-2h48.25a1,1,0,0,1,0,2Z" fill="#dfeaef"></path><path d="M234.21,107.86h-39a1,1,0,0,1,0-2h39a1,1,0,0,1,0,2Z" fill="#dfeaef"></path><path d="M243.42,118.56H195.17a1,1,0,0,1,0-2h48.25a1,1,0,1,1,0,2Z" fill="#dfeaef"></path><rect x="131.6" y="83.05" width="83.83" height="80.54" fill="#fff"></rect><path d="M215.43,164.59H131.6a1,1,0,0,1-1-1V83.05a1,1,0,0,1,1-1h83.83a1,1,0,0,1,1,1v80.54A1,1,0,0,1,215.43,164.59Zm-82.83-2h81.83V84.05H132.6Z" fill="#093f68"></path><rect x="108.5" y="125.76" width="183" height="18.42" fill="#68e1fd"></rect><path d="M291.5,145.17h-183a1,1,0,0,1-1-1V125.76a1,1,0,0,1,1-1h183a1,1,0,0,1,1,1v18.41A1,1,0,0,1,291.5,145.17Zm-182-2h181V126.76h-181Z" fill="#093f68"></path><polygon points="291.5 144.17 108.5 144.17 174.71 227.02 225.29 227.02 291.5 144.17" fill="#68e1fd"></polygon><path d="M225.29,228H174.71a1,1,0,0,1-.79-.38l-66.2-82.84a1,1,0,0,1-.12-1.06,1,1,0,0,1,.9-.57h183a1,1,0,0,1,.9.57,1,1,0,0,1-.12,1.06l-66.2,82.84A1,1,0,0,1,225.29,228Zm-50.1-2h49.62l64.61-80.85H110.58Z" fill="#093f68"></path><g id="ahcQ9Z"><path d="M207.94,178.93a3.25,3.25,0,0,0-2.5-3c-1.2-.26-2.43-.45-3.64-.64a.82.82,0,0,1-.73-.6c-.36-1-.76-1.93-1.19-2.87a.63.63,0,0,1,.07-.73c.73-1,1.48-2,2.16-3.07a3.2,3.2,0,0,0-.28-3.9c-1.12-1.22-2.31-2.37-3.48-3.55a3.42,3.42,0,0,0-4.66-.42c-.92.63-1.83,1.28-2.72,1.94a.63.63,0,0,1-.73.07c-1-.45-2.08-.88-3.13-1.28a.65.65,0,0,1-.47-.57c-.17-1.12-.36-2.23-.55-3.34a3.38,3.38,0,0,0-3.23-2.89c-1.71,0-3.43,0-5.15,0a3.28,3.28,0,0,0-3.12,2.55c-.27,1.25-.46,2.51-.67,3.78a.64.64,0,0,1-.47.56c-1,.4-2,.82-3,1.27a.59.59,0,0,1-.69-.06c-1-.73-2-1.47-3-2.15a3.21,3.21,0,0,0-3.94.25c-1.31,1.2-2.58,2.45-3.79,3.75a3.31,3.31,0,0,0-.22,4.39c.67,1,1.37,1.91,2,2.88a.6.6,0,0,1,0,.51c-.41,1.08-.84,2.15-1.3,3.22a.66.66,0,0,1-.4.33c-1.11.21-2.23.39-3.34.57a3.36,3.36,0,0,0-3,3.13c-.06,1.79-.05,3.58,0,5.37a3.22,3.22,0,0,0,2.48,3c1.27.29,2.57.48,3.86.7a.62.62,0,0,1,.54.44c.4,1,.83,2,1.28,3a.57.57,0,0,1-.06.65c-.68.92-1.36,1.85-2,2.79a3.37,3.37,0,0,0,.39,4.52q1.6,1.65,3.25,3.26a3.4,3.4,0,0,0,4.64.36c.93-.66,1.87-1.32,2.79-2a.55.55,0,0,1,.61-.05c1,.41,1.9.83,2.88,1.18a.75.75,0,0,1,.53.68c.17,1.1.35,2.2.54,3.29a3.34,3.34,0,0,0,3.08,2.89c1.81.06,3.62.06,5.42,0a3.24,3.24,0,0,0,3-2.52c.27-1.22.45-2.46.65-3.69a.72.72,0,0,1,.52-.64c1-.38,2-.8,3-1.24a.57.57,0,0,1,.65.07c.93.67,1.87,1.33,2.79,2a3.6,3.6,0,0,0,2.25.68,2.89,2.89,0,0,0,2-.82c1.19-1.11,2.33-2.27,3.48-3.42a3.43,3.43,0,0,0,.42-4.74c-.63-.91-1.28-1.82-1.94-2.72a.56.56,0,0,1-.06-.65c.44-1,.86-2,1.26-3a.64.64,0,0,1,.58-.46l3.34-.54a3.36,3.36,0,0,0,2.92-3.2Q208,181.57,207.94,178.93Zm-27.56,14.56a11.89,11.89,0,1,1,11.91-11.87A11.89,11.89,0,0,1,180.38,193.49Z" fill="#ffbc0e" stroke="#093f68" stroke-linecap="round" stroke-linejoin="round" stroke-width="2"></path></g><g id="ahcQ9Z-2" data-name="ahcQ9Z"><path d="M252.47,169.54a2.38,2.38,0,0,0-1.85-2.23c-.89-.19-1.79-.33-2.69-.47a.61.61,0,0,1-.54-.45c-.27-.72-.57-1.42-.88-2.13a.47.47,0,0,1,.05-.54c.54-.74,1.09-1.49,1.6-2.26a2.37,2.37,0,0,0-.21-2.89c-.83-.91-1.71-1.76-2.58-2.63a2.53,2.53,0,0,0-3.45-.32c-.68.47-1.35.95-2,1.44a.48.48,0,0,1-.54.06q-1.14-.51-2.31-1a.47.47,0,0,1-.35-.42c-.13-.82-.26-1.65-.41-2.47a2.49,2.49,0,0,0-2.39-2.14q-1.91,0-3.81,0a2.42,2.42,0,0,0-2.31,1.89c-.21.92-.35,1.86-.5,2.79a.47.47,0,0,1-.35.42c-.74.3-1.48.61-2.21.94a.44.44,0,0,1-.51,0c-.73-.55-1.47-1.09-2.23-1.59a2.37,2.37,0,0,0-2.92.18c-1,.89-1.91,1.81-2.81,2.78a2.45,2.45,0,0,0-.16,3.25c.5.71,1,1.41,1.51,2.13a.5.5,0,0,1,0,.38c-.31.8-.63,1.59-1,2.38a.47.47,0,0,1-.3.25c-.82.15-1.65.29-2.47.42a2.48,2.48,0,0,0-2.21,2.32c-.05,1.32,0,2.65,0,4a2.38,2.38,0,0,0,1.83,2.21c.94.21,1.9.36,2.86.52a.46.46,0,0,1,.4.33c.29.75.61,1.5.95,2.24a.41.41,0,0,1,0,.48c-.5.68-1,1.37-1.48,2.07a2.51,2.51,0,0,0,.29,3.35c.79.81,1.6,1.61,2.41,2.41a2.51,2.51,0,0,0,3.43.26c.69-.49,1.39-1,2.07-1.48a.39.39,0,0,1,.45,0c.71.3,1.41.61,2.13.87a.55.55,0,0,1,.4.5c.12.82.26,1.63.4,2.44a2.47,2.47,0,0,0,2.28,2.14c1.34,0,2.68,0,4,0a2.38,2.38,0,0,0,2.22-1.87c.2-.9.34-1.82.49-2.73a.52.52,0,0,1,.38-.47c.75-.29,1.48-.6,2.22-.92a.42.42,0,0,1,.48,0c.68.5,1.38,1,2.07,1.48a2.58,2.58,0,0,0,1.66.5,2.14,2.14,0,0,0,1.48-.6c.88-.83,1.72-1.69,2.58-2.54a2.53,2.53,0,0,0,.31-3.5c-.47-.68-1-1.35-1.44-2a.42.42,0,0,1-.05-.48c.33-.74.64-1.49.94-2.25a.46.46,0,0,1,.43-.34c.82-.13,1.65-.26,2.47-.41a2.48,2.48,0,0,0,2.16-2.36C252.51,172.15,252.5,170.85,252.47,169.54Zm-20.41,10.79a8.81,8.81,0,1,1,8.83-8.79A8.81,8.81,0,0,1,232.06,180.33Z" fill="#f56132" stroke="#093f68" stroke-linecap="round" stroke-linejoin="round" stroke-width="2"></path></g><path d="M202.58,96H145.89a1,1,0,0,1,0-2h56.69a1,1,0,0,1,0,2Z" fill="#dfeaef"></path><path d="M202.58,106.67H145.89a1,1,0,0,1,0-2h56.69a1,1,0,0,1,0,2Z" fill="#dfeaef"></path><path d="M194.15,117.37H145.89a1,1,0,0,1,0-2h48.26a1,1,0,0,1,0,2Z" fill="#dfeaef"></path><rect x="175.01" y="227.02" width="49.99" height="9.89" fill="#093f68"></rect><path d="M225,237.91H175a1,1,0,0,1-1-1V227a1,1,0,0,1,1-1h50a1,1,0,0,1,1,1v9.89A1,1,0,0,1,225,237.91Zm-49-2h48V228H176Z" fill="#093f68"></path><path d="M279.26,111.74a1,1,0,0,1-1-1V76.39a1,1,0,1,1,2,0v34.35A1,1,0,0,1,279.26,111.74Z" fill="#dfeaef"></path><path d="M279.26,113.56a1,1,0,0,1-.77-.36l-4.78-5.7a1,1,0,1,1,1.53-1.28l4,4.75,3.89-5a1,1,0,1,1,1.57,1.23l-4.64,6a1,1,0,0,1-.77.39Z" fill="#dfeaef"></path><path d="M117,111.74a1,1,0,0,1-1-1V76.39a1,1,0,0,1,2,0v34.35A1,1,0,0,1,117,111.74Z" fill="#dfeaef"></path><path d="M117,113.56a1,1,0,0,1-.77-.36l-4.79-5.7a1,1,0,1,1,1.54-1.28l4,4.75,3.88-5a1,1,0,0,1,1.41-.17,1,1,0,0,1,.17,1.4l-4.64,6a1,1,0,0,1-.78.39Z" fill="#dfeaef"></path></g></svg>