<?xml version="1.0" encoding="iso-8859-1"?>
<!-- Uploaded to: SVG Repo, www.svgrepo.com, Generator: SVG Repo Mixer Tools -->
<svg fill="#000000" height="800px" width="800px" version="1.1" id="Layer_1" xmlns="http://www.w3.org/2000/svg" xmlns:xlink="http://www.w3.org/1999/xlink" 
	 viewBox="0 0 512.001 512.001" xml:space="preserve">
<g>
	<g>
		<path d="M256.001,342.306c-24.706,0-44.806,20.104-44.806,44.818c0,24.705,20.1,44.805,44.806,44.805s44.806-20.1,44.806-44.805
			C300.807,362.411,280.707,342.306,256.001,342.306z M256.001,410.505c-12.893,0-23.383-10.49-23.383-23.382
			c0-12.9,10.49-23.395,23.383-23.395s23.383,10.495,23.383,23.395C279.384,400.016,268.894,410.505,256.001,410.505z"/>
	</g>
</g>
<g>
	<g>
		<path d="M177.861,254.022c-5.916,0-10.711,4.797-10.711,10.711c0,3.372-2.749,6.116-6.127,6.116c-3.372,0-6.116-2.744-6.116-6.116
			c0-5.915-4.796-10.711-10.711-10.711c-5.916,0-10.711,4.797-10.711,10.711c0,15.186,12.355,27.539,27.539,27.539
			c15.191,0,27.55-12.353,27.55-27.539C188.572,258.819,183.777,254.022,177.861,254.022z"/>
	</g>
</g>
<g>
	<g>
		<path d="M455.813,187.529l-1.096-1.353c-3.737-4.586-10.484-5.272-15.07-1.537c-4.586,3.738-5.273,10.484-1.537,15.071
			l1.022,1.261c2.117,2.626,5.218,3.991,8.347,3.991c2.359,0,4.733-0.775,6.714-2.37
			C458.799,198.879,459.525,192.136,455.813,187.529z"/>
	</g>
</g>
<g>
	<g>
		<path d="M507.566,276.487c-9.751-23.688-21.428-45.797-34.709-65.709c-3.282-4.921-9.932-6.247-14.855-2.968
			c-4.922,3.282-6.25,9.933-2.968,14.855c12.498,18.739,23.508,39.592,32.721,61.974c4.224,10.267,3.677,21.789-1.501,31.613
			c-4.71,8.937-12.764,15.465-22.345,18.24C416.084,234.18,384.92,186.894,341.286,189.427
			c-15.537,0.901-29.948,15.629-37.157,24.328c-11.806,14.248-20.731,31.97-24.484,48.625c-8.818,39.163,0.312,48.326,18.593,62.389
			c13.749,10.576,34.235,26.357,56.99,75.979c-24.426,24.135-47.726,44.044-99.227,44.044c-51.502,0-74.801-19.909-99.227-44.044
			c22.754-49.622,43.24-65.403,56.99-75.979c18.281-14.063,27.411-23.227,18.592-62.392c-3.753-16.651-12.677-34.373-24.484-48.621
			c-7.208-8.699-21.62-23.427-37.147-24.327c-43.645-2.536-74.808,44.751-122.633,145.064c-9.581-2.775-17.634-9.306-22.344-18.242
			c-5.178-9.823-5.725-21.346-1.502-31.611c15.941-38.725,45.569-92.604,96.199-129.367c27.238-19.788,58.093-32.786,91.712-38.635
			c14.023-2.445,28.774-3.686,43.844-3.686c15.07,0,29.821,1.24,43.848,3.686c33.615,5.85,64.47,18.848,91.71,38.636
			c9.956,7.23,19.586,15.484,28.619,24.533c2.092,2.095,4.836,3.144,7.581,3.144c2.738,0,5.477-1.044,7.568-3.131
			c4.187-4.18,4.192-10.961,0.013-15.148c-7.758-7.772-15.935-15.002-24.378-21.589c2.705-6.646,6.622-16.798,10.068-27.753
			c11.743-37.336,7.108-49.945,2.601-56.181c-5.389-7.454-14.79-12.12-26.474-13.138c-28.297-2.472-65.57,15.617-100.212,48.469
			c-13.235-1.956-26.972-2.953-40.942-2.953s-27.709,0.997-40.942,2.953c-34.642-32.851-71.92-50.933-100.212-48.469
			c-11.684,1.017-21.085,5.684-26.474,13.138c-4.507,6.236-9.143,18.846,2.601,56.181c3.447,10.959,7.365,21.113,10.07,27.76
			c-50.524,39.418-80.334,93.859-96.609,133.398c-6.649,16.158-5.787,34.293,2.361,49.751c8.097,15.361,22.454,26.245,39.393,29.861
			c1.887,0.402,3.605,0.798,5.302,1.222c0.013,0.003,0.027,0.007,0.04,0.011c41.541,10.188,63.572,32.144,84.877,53.376l0.153,0.153
			c27.298,27.212,55.527,55.352,119.44,55.352s92.141-28.14,119.44-55.352l0.152-0.152c21.299-21.226,43.323-43.176,84.885-53.378
			c0.007-0.002,0.015-0.004,0.021-0.005c0.017-0.004,0.033-0.009,0.05-0.013c1.652-0.413,3.373-0.81,5.264-1.214
			c16.938-3.615,31.296-14.499,39.392-29.86C513.355,310.782,514.216,292.648,507.566,276.487z M395.296,67.355
			c5.231,0.456,9.333,2.08,10.952,4.32c0.041,0.065,3.948,6.89-5.8,37.686c-2.452,7.745-5.184,15.134-7.459,20.943
			c-21.518-13.872-44.903-24.09-69.83-30.528C353.75,74.195,379.913,66.027,395.296,67.355z M105.735,71.702
			c1.638-2.265,5.738-3.89,10.971-4.347c15.384-1.334,41.547,6.839,72.137,32.421c-24.929,6.439-48.313,16.656-69.83,30.528
			c-2.274-5.81-5.008-13.199-7.459-20.944C101.805,78.565,105.712,71.74,105.735,71.702z M69.17,340.069
			c40.88-85.352,69.57-131.065,100.305-129.253c9.901,0.573,35.002,25.305,41.981,56.269c3.155,14.009,3.715,22.919,1.762,28.042
			c-1.566,4.109-5.168,7.008-12.516,12.661c-14.756,11.351-36.433,28.049-60.095,77.005
			C122.834,367.752,101.691,350.525,69.17,340.069z M371.395,384.794c-23.663-48.956-45.338-65.654-60.095-77.005
			c-7.348-5.652-10.95-8.552-12.516-12.661c-1.953-5.122-1.393-14.033,1.761-28.039c6.981-30.968,32.081-55.699,41.991-56.274
			c30.734-1.778,59.417,43.905,100.297,129.256C410.302,350.535,389.163,367.758,371.395,384.794z"/>
	</g>
</g>
<g>
	<g>
		<path d="M367.807,254.022c-5.916,0-10.711,4.797-10.711,10.711c0,3.372-2.744,6.116-6.116,6.116c-3.378,0-6.127-2.744-6.127-6.116
			c0-5.915-4.795-10.711-10.711-10.711c-5.916,0-10.711,4.797-10.711,10.711c0,15.186,12.359,27.539,27.55,27.539
			c15.186,0,27.539-12.353,27.539-27.539C378.518,258.818,373.722,254.022,367.807,254.022z"/>
	</g>
</g>
</svg>